<svg width="23" height="24" viewBox="0 0 23 24" fill="none" xmlns="http://www.w3.org/2000/svg">
<g clip-path="url(#clip0_56_1077)">
<path d="M9.39005 19V14H13.1461V19C13.1461 19.55 13.5686 20 14.0851 20H16.9021C17.4185 20 17.8411 19.55 17.8411 19V12H19.4374C19.8694 12 20.0759 11.43 19.7473 11.13L11.8972 3.6C11.5404 3.26 10.9958 3.26 10.6389 3.6L2.78884 11.13C2.46958 11.43 2.66677 12 3.09871 12H4.69502V19C4.69502 19.55 5.11757 20 5.63403 20H8.45104C8.9675 20 9.39005 19.55 9.39005 19Z" fill="#3D42DF"/>
</g>
<defs>
<clipPath id="clip0_56_1077">
<rect width="22.5361" height="24" fill="white"/>
</clipPath>
</defs>
</svg>
