<svg width="25" height="24" viewBox="0 0 25 24" fill="none" xmlns="http://www.w3.org/2000/svg">
<path d="M12.756 23.7279L6.39199 17.3639C5.13332 16.1052 4.27617 14.5016 3.92891 12.7558C3.58165 11.0099 3.75989 9.20035 4.44108 7.55582C5.12227 5.91129 6.27583 4.50569 7.75586 3.51677C9.2359 2.52784 10.976 2 12.756 2C14.536 2 16.2761 2.52784 17.7561 3.51677C19.2361 4.50569 20.3897 5.91129 21.0709 7.55582C21.7521 9.20035 21.9303 11.0099 21.5831 12.7558C21.2358 14.5016 20.3786 16.1052 19.12 17.3639L12.756 23.7279ZM17.706 15.9499C18.6849 14.9709 19.3515 13.7236 19.6215 12.3658C19.8916 11.0079 19.7529 9.60052 19.2231 8.32148C18.6932 7.04244 17.796 5.94923 16.6449 5.18009C15.4938 4.41095 14.1404 4.00043 12.756 4.00043C11.3715 4.00043 10.0182 4.41095 8.86707 5.18009C7.71594 5.94923 6.81873 7.04244 6.2889 8.32148C5.75906 9.60052 5.6204 11.0079 5.89044 12.3658C6.16048 13.7236 6.82709 14.9709 7.80599 15.9499L12.756 20.8999L17.706 15.9499ZM12.756 12.9999C12.2256 12.9999 11.7168 12.7892 11.3418 12.4141C10.9667 12.0391 10.756 11.5304 10.756 10.9999C10.756 10.4695 10.9667 9.96078 11.3418 9.58571C11.7168 9.21064 12.2256 8.99992 12.756 8.99992C13.2864 8.99992 13.7951 9.21064 14.1702 9.58571C14.5453 9.96078 14.756 10.4695 14.756 10.9999C14.756 11.5304 14.5453 12.0391 14.1702 12.4141C13.7951 12.7892 13.2864 12.9999 12.756 12.9999Z" fill="#09090B"/>
</svg>
