<svg width="23" height="24" viewBox="0 0 23 24" fill="none" xmlns="http://www.w3.org/2000/svg">
<g clip-path="url(#clip0_57_80)">
<path d="M3.75602 13H9.39006C9.90651 13 10.3291 12.55 10.3291 12V4C10.3291 3.45 9.90651 3 9.39006 3H3.75602C3.23957 3 2.81702 3.45 2.81702 4V12C2.81702 12.55 3.23957 13 3.75602 13ZM3.75602 21H9.39006C9.90651 21 10.3291 20.55 10.3291 20V16C10.3291 15.45 9.90651 15 9.39006 15H3.75602C3.23957 15 2.81702 15.45 2.81702 16V20C2.81702 20.55 3.23957 21 3.75602 21ZM13.1461 21H18.7801C19.2966 21 19.7191 20.55 19.7191 20V12C19.7191 11.45 19.2966 11 18.7801 11H13.1461C12.6296 11 12.2071 11.45 12.2071 12V20C12.2071 20.55 12.6296 21 13.1461 21ZM12.2071 4V8C12.2071 8.55 12.6296 9 13.1461 9H18.7801C19.2966 9 19.7191 8.55 19.7191 8V4C19.7191 3.45 19.2966 3 18.7801 3H13.1461C12.6296 3 12.2071 3.45 12.2071 4Z" fill="#A3AED0"/>
</g>
<defs>
<clipPath id="clip0_57_80">
<rect width="22.5361" height="24" fill="white"/>
</clipPath>
</defs>
</svg>
