<svg width="21" height="21" viewBox="0 0 21 21" fill="none" xmlns="http://www.w3.org/2000/svg">
<path d="M4.0769 5.44435C4.0769 5.0507 4.23328 4.67317 4.51164 4.39481C4.78999 4.11646 5.16752 3.96008 5.56117 3.96008H7.99537C8.15106 3.9602 8.30278 4.00928 8.42904 4.10038C8.5553 4.19148 8.64971 4.31999 8.69891 4.4677L9.81063 7.80211C9.86696 7.97156 9.86029 8.15565 9.79186 8.32059C9.72343 8.48554 9.59782 8.62027 9.43807 8.70009L7.76308 9.5387C8.58412 11.3558 10.0395 12.8113 11.8567 13.6323L12.6953 11.9573C12.7751 11.7976 12.9098 11.672 13.0748 11.6035C13.2397 11.5351 13.4238 11.5284 13.5933 11.5848L16.9277 12.6965C17.0755 12.7457 17.2041 12.8402 17.2952 12.9666C17.3863 13.0931 17.4353 13.2449 17.4353 13.4008V15.8342C17.4353 16.2279 17.2789 16.6054 17.0006 16.8837C16.7222 17.1621 16.3447 17.3185 15.951 17.3185H15.2089C9.06107 17.3185 4.0769 12.3343 4.0769 6.18648V5.44435Z" stroke="black" stroke-linecap="round" stroke-linejoin="round"/>
</svg>
