<svg width="27" height="28" viewBox="0 0 27 28" fill="none" xmlns="http://www.w3.org/2000/svg">
<g clip-path="url(#clip0_56_1065)">
<path d="M7.01125 10.7333H7.23035C8.07389 10.7333 8.76406 11.4683 8.76406 12.3667V20.5333C8.76406 21.4317 8.07389 22.1667 7.23035 22.1667H7.01125C6.16771 22.1667 5.47754 21.4317 5.47754 20.5333V12.3667C5.47754 11.4683 6.16771 10.7333 7.01125 10.7333ZM13.1461 5.83333C13.9896 5.83333 14.6798 6.56833 14.6798 7.46666V20.5333C14.6798 21.4317 13.9896 22.1667 13.1461 22.1667C12.3025 22.1667 11.6124 21.4317 11.6124 20.5333V7.46666C11.6124 6.56833 12.3025 5.83333 13.1461 5.83333ZM19.2809 15.1667C20.1245 15.1667 20.8146 15.9017 20.8146 16.8V20.5333C20.8146 21.4317 20.1245 22.1667 19.2809 22.1667C18.4374 22.1667 17.7472 21.4317 17.7472 20.5333V16.8C17.7472 15.9017 18.4374 15.1667 19.2809 15.1667Z" fill="#A3AED0"/>
</g>
<defs>
<clipPath id="clip0_56_1065">
<rect width="26.2922" height="28" fill="white"/>
</clipPath>
</defs>
</svg>
