<svg width="24" height="24" viewBox="0 0 24 24" fill="none" xmlns="http://www.w3.org/2000/svg">
<g clip-path="url(#clip0_62_216)">
<path d="M16.3815 3.98965H19.8866C20.1191 3.98965 20.3419 4.08197 20.5063 4.24631C20.6706 4.41065 20.7629 4.63353 20.7629 4.86594V18.8866C20.7629 19.1191 20.6706 19.3419 20.5063 19.5063C20.3419 19.6706 20.1191 19.7629 19.8866 19.7629H4.11335C3.88095 19.7629 3.65806 19.6706 3.49372 19.5063C3.32938 19.3419 3.23706 19.1191 3.23706 18.8866V4.86594C3.23706 4.63353 3.32938 4.41065 3.49372 4.24631C3.65806 4.08197 3.88095 3.98965 4.11335 3.98965H7.61853V2.23706H9.37112V3.98965H14.6289V2.23706H16.3815V3.98965ZM4.98965 9.24741V18.0104H19.0104V9.24741H4.98965ZM6.74224 11H8.49482V12.7526H6.74224V11ZM11.1237 11H12.8763V12.7526H11.1237V11ZM15.5052 11H17.2578V12.7526H15.5052V11Z" fill="#A3AED0"/>
</g>
<defs>
<clipPath id="clip0_62_216">
<rect width="24" height="24" fill="white"/>
</clipPath>
</defs>
</svg>
