<svg width="24" height="24" viewBox="0 0 24 24" fill="none" xmlns="http://www.w3.org/2000/svg">
<g clip-path="url(#clip0_62_210)">
<path d="M16.3407 3.18667H18.9452C19.1754 3.18667 19.3962 3.27814 19.5591 3.44095C19.7219 3.60376 19.8133 3.82457 19.8133 4.05482V19.6815C19.8133 19.9117 19.7219 20.1325 19.5591 20.2953C19.3962 20.4581 19.1754 20.5496 18.9452 20.5496H5.05482C4.82458 20.5496 4.60376 20.4581 4.44095 20.2953C4.27814 20.1325 4.18668 19.9117 4.18668 19.6815V4.05482C4.18668 3.82457 4.27814 3.60376 4.44095 3.44095C4.60376 3.27814 4.82458 3.18667 5.05482 3.18667H7.65926V1.45038H9.39556V3.18667H14.6044V1.45038H16.3407V3.18667ZM16.3407 4.92297V6.65926H14.6044V4.92297H9.39556V6.65926H7.65926V4.92297H5.92297V18.8133H18.077V4.92297H16.3407ZM7.65926 8.39556H16.3407V10.1318H7.65926V8.39556ZM7.65926 11.8681H16.3407V13.6044H7.65926V11.8681Z" fill="#A3AED0"/>
</g>
<defs>
<clipPath id="clip0_62_210">
<rect width="24" height="24" fill="white"/>
</clipPath>
</defs>
</svg>
