<svg width="21" height="21" viewBox="0 0 21 21" fill="none" xmlns="http://www.w3.org/2000/svg">
<path d="M5.0236 15.4759C6.77228 14.4875 8.74742 13.9696 10.7561 13.9726C12.8394 13.9726 14.7953 14.5184 16.4886 15.4759M13.2561 8.97262C13.2561 9.63566 12.9927 10.2715 12.5239 10.7404C12.055 11.2092 11.4191 11.4726 10.7561 11.4726C10.0931 11.4726 9.45718 11.2092 8.98834 10.7404C8.5195 10.2715 8.2561 9.63566 8.2561 8.97262C8.2561 8.30957 8.5195 7.67369 8.98834 7.20485C9.45718 6.73601 10.0931 6.47262 10.7561 6.47262C11.4191 6.47262 12.055 6.73601 12.5239 7.20485C12.9927 7.67369 13.2561 8.30957 13.2561 8.97262ZM18.2561 10.6393C18.2561 11.6242 18.0621 12.5995 17.6852 13.5094C17.3083 14.4193 16.7558 15.2461 16.0594 15.9426C15.363 16.639 14.5362 17.1915 13.6262 17.5684C12.7163 17.9453 11.741 18.1393 10.7561 18.1393C9.77119 18.1393 8.79592 17.9453 7.88598 17.5684C6.97604 17.1915 6.14924 16.639 5.4528 15.9426C4.75636 15.2461 4.20392 14.4193 3.82701 13.5094C3.4501 12.5995 3.2561 11.6242 3.2561 10.6393C3.2561 8.65016 4.04628 6.7425 5.4528 5.33598C6.85933 3.92946 8.76698 3.13928 10.7561 3.13928C12.7452 3.13928 14.6529 3.92946 16.0594 5.33598C17.4659 6.7425 18.2561 8.65016 18.2561 10.6393Z" stroke="black" stroke-linecap="round" stroke-linejoin="round"/>
</svg>
